<?xml version="1.0" encoding="UTF-8"?>
<svg width="147px" height="61px" viewBox="0 0 147 61" version="1.1" xmlns="http://www.w3.org/2000/svg" xmlns:xlink="http://www.w3.org/1999/xlink">
    <!-- Generator: Sketch 49.1 (51147) - http://www.bohemiancoding.com/sketch -->
    <title>hpe</title>
    <desc>Created with Sketch.</desc>
    <defs></defs>
    <g id="hpe" stroke="none" stroke-width="1" fill="none" fill-rule="evenodd">
        <path d="M46.8524215,11.2301654 L3.12388126,11.2301654 L3.12388126,3.12349831 L46.8524215,3.12349831 L46.8524215,11.2301654 Z M49.9763134,0 L0,0 L0,14.3520681 L49.9763134,14.3520681 L49.9763134,0 Z M3.12388126,38.0728546 L0,38.0728546 L0,23.7207653 L3.12388126,23.7207866 L3.12388126,29.3923006 L8.70531789,29.3923006 L8.70531789,23.7207653 L11.8291991,23.7207653 L11.8291991,38.0728546 L8.70531789,38.0728546 L8.70531789,32.1250877 L3.12388126,32.1250877 L3.12388126,38.0728546 M16.5600916,31.7805215 L20.2810281,31.7805215 C20.2117255,30.7250268 19.7760714,29.9893558 18.558197,29.9893558 C17.6393396,29.9893558 16.8353446,30.3804925 16.5600916,31.7805853 L16.5600916,31.7805215 Z M18.9255272,38.302569 C15.7560967,38.302569 13.5975795,36.3044636 13.5975795,33.0221491 C13.5975795,29.8289546 15.7105474,27.6248988 18.5126477,27.6248988 C21.5672264,27.6248988 23.0831284,29.6685535 23.0831284,32.7231322 L23.0831284,33.8716933 L16.5600916,33.8716933 C16.9284218,35.45493 18.1680709,35.8677989 19.4087199,35.8677989 C20.4879678,35.8677989 21.2681988,35.6390951 22.2325949,35.0410612 L22.3484361,35.0410612 L22.3484361,37.4064968 C21.5216771,38.0045307 20.349352,38.302569 18.9255379,38.302569 L18.9255272,38.302569 Z M31.2359405,32.0567637 L29.6279506,38.072844 L26.8951635,38.072844 L23.7712822,27.9684758 L23.7712822,27.8536239 L26.757537,27.8536239 L28.4566148,33.8934787 L30.0646685,27.8536239 L32.4993535,27.8536239 L34.1301712,33.8934787 L35.8530023,27.8536239 L38.7244584,27.8536239 L38.7244584,27.9684758 L35.6005771,38.0728546 L32.8667688,38.0728546 L31.2360575,32.0567744 M43.7988321,38.302569 C41.318534,38.302569 40.3075993,37.3153982 40.3075993,34.9964906 L40.3075993,23.7217652 L43.3393608,23.7217652 L43.3393608,34.7895402 C43.3393608,35.5014579 43.61455,35.7539469 44.2116265,35.7539469 C44.4185236,35.7539469 44.7175406,35.6855485 44.9007164,35.6162992 L44.9472017,35.6162992 L44.9472017,38.1193825 C44.6946702,38.2104386 44.2580268,38.3025583 43.798598,38.3025583 M48.7604282,31.7805215 L52.4813647,31.7805215 C52.4121153,30.7250268 51.9764079,29.9893558 50.7585336,29.9893558 C49.8407399,29.9893558 49.0357025,30.3804925 48.7605133,31.7805853 L48.7604282,31.7805215 Z M51.1258638,38.302569 C47.9564332,38.302569 45.7979161,36.3044636 45.7979161,33.0221491 C45.7979161,29.8289546 47.910884,27.6248988 50.7129736,27.6248988 C53.767563,27.6248988 55.283465,29.6685535 55.283465,32.7231322 L55.283465,33.8716933 L48.7605133,33.8716933 C49.1279286,35.45493 50.368567,35.8677989 51.6081416,35.8677989 C52.6884746,35.8677989 53.4686205,35.6390951 54.4340697,35.0410612 L54.5489534,35.0410612 L54.5489534,37.4064968 C53.7222158,38.0045307 52.5508268,38.302569 51.1260553,38.302569 L51.1258638,38.302569 Z M67.7315047,27.8536239 L69.9820885,27.8536239 L69.9820885,30.2873834 L67.7315047,30.2873834 L67.7315047,34.4439954 C67.7315047,35.3400675 68.0760709,35.7539469 68.9949071,35.7539469 C69.2474067,35.7539469 69.5691983,35.7301192 69.9137645,35.6152354 L69.9820885,35.6152354 L69.9820885,38.003435 C69.5919729,38.1420402 68.9949177,38.3014946 68.1226095,38.3014946 C65.6640968,38.3014946 64.69969,37.1766974 64.69969,34.5814942 L64.69969,30.2872877 L60.8183418,30.2872877 L60.8183418,34.4438571 C60.8183418,35.3399505 61.1629186,35.7538087 62.0807868,35.7538087 C62.3342544,35.7538087 62.6560566,35.7300447 63.0006016,35.6152035 L63.0689362,35.6152035 L63.0689362,38.0034031 C62.6788206,38.1420295 62.0807761,38.3014627 61.2094466,38.3014627 C58.7509338,38.3014627 57.7865484,37.1766655 57.7865484,34.5814836 L57.7865484,30.2872771 L56.2241291,30.2872771 L56.2241291,27.8535494 L57.7865484,27.8535494 L57.7865484,25.0525129 L60.8184162,25.0525129 L60.8184162,27.8536239 L64.6997858,27.8536239 L64.6997858,25.0525341 L67.7316536,25.0525341 L67.7316536,27.8536452 M80.1973621,30.7705761 C81.7835666,30.7705761 82.5400337,29.8754826 82.5400337,28.5892949 C82.5400337,27.2565687 81.7835666,26.3614858 80.1973621,26.3614858 L78.2220207,26.3614858 L78.2220207,30.7705761 L80.1973833,30.7705761 L80.1973621,30.7705761 Z M85.7104641,28.5892949 C85.7104641,31.7131762 83.6202709,33.4112753 80.4498511,33.4112753 L78.2220207,33.4112753 L78.2220207,38.0727908 L75.100118,38.0727908 L75.100118,23.7207334 L80.4498511,23.7207334 C83.6202709,23.7207334 85.7104641,25.4198112 85.7104641,28.5892524 L85.7104641,28.5892949 Z M92.3701381,34.8578642 L92.3701381,33.9855559 C91.9107094,33.7340668 91.3146541,33.6419683 90.693835,33.6419683 C89.7066855,33.6419683 89.109609,34.0083199 89.109609,34.8351001 C89.109609,35.685623 89.7066855,36.0529745 90.6018216,36.0529745 C91.4514296,36.0529745 92.0949915,35.6163098 92.3702871,34.8578642 L92.3701381,34.8578642 Z M92.462226,37.0629092 C91.7958576,37.8669042 90.8096761,38.2570197 89.7512243,38.2570197 C87.7541082,38.2570197 86.1223544,37.0411345 86.1223544,34.8806494 C86.1223544,32.8835333 87.7541082,31.5517857 90.0957905,31.5517857 C90.8304722,31.5517857 91.5899178,31.6666482 92.3701381,31.8953733 L92.3701381,31.7131868 C92.3701381,30.6101749 91.7502976,30.1289609 90.1205437,30.1289609 C89.0858451,30.1289609 88.0986744,30.4260099 87.2481515,30.9091919 L87.1342251,30.9091919 L87.1342251,28.4744431 C87.9144774,28.0160036 89.2937209,27.6248988 90.6472219,27.6248988 C93.7255752,27.6248988 95.4018145,29.0942623 95.4018145,31.6666482 L95.4018145,38.0728546 L92.4621728,38.0728546 L92.4621728,37.0629092 L92.462226,37.0629092 Z M96.9406295,32.9756105 C96.9406295,29.6913175 99.2615157,27.6248988 102.29332,27.6248988 C103.372568,27.6248988 104.382502,27.8546132 105.140948,28.4051298 L105.140948,31.000333 L105.025107,31.000333 C104.358749,30.4953763 103.578529,30.1963593 102.683435,30.1963593 C101.167533,30.1963593 100.018983,31.2310579 100.018983,32.9756956 C100.018983,34.7203334 101.167533,35.7313106 102.683435,35.7313106 C103.578518,35.7313106 104.358749,35.4322937 105.025118,34.9263796 L105.140959,34.9263796 L105.140959,37.5215827 C104.382513,38.0730886 103.372568,38.3027924 102.29333,38.3027924 C99.2615157,38.3027924 96.9406295,36.2601482 96.9406295,32.9758446 M110.077802,33.4350393 L110.077802,38.0728546 L107.046976,38.0728546 L107.046976,23.7207866 L110.077802,23.7207866 L110.077802,31.8953733 L113.13337,27.8536239 L116.578074,27.8536239 L116.578074,27.9684758 L112.903655,32.6072804 L116.578064,37.9579921 L116.578074,38.0728546 L113.109606,38.0728546 L110.077802,33.4350393 M123.376364,34.8578642 L123.376364,33.9855559 C122.917935,33.7340668 122.319891,33.6419683 121.700061,33.6419683 C120.71289,33.6419683 120.115835,34.0083199 120.115835,34.8351001 C120.115835,35.685623 120.71289,36.0529745 121.606984,36.0529745 C122.458507,36.0529745 123.101111,35.6163098 123.376364,34.8578642 Z M123.468452,37.0629092 C122.80202,37.8669042 121.813913,38.2570197 120.758365,38.2570197 C118.759281,38.2570197 117.129421,37.0411345 117.129421,34.8806494 C117.129421,32.8835333 118.759175,31.5517857 121.103867,31.5517857 C121.838485,31.5517857 122.595016,31.6666482 123.376226,31.8953733 L123.376226,31.7131868 C123.376226,30.6101749 122.756385,30.1289609 121.125568,30.1289609 C120.092816,30.1289609 119.103667,30.4260099 118.254133,30.9091919 L118.139292,30.9091919 L118.139292,28.4744431 C118.920501,28.0160036 120.298788,27.6248988 121.653299,27.6248988 C124.73261,27.6248988 126.408955,29.0942623 126.408955,31.6666482 L126.408955,38.0728546 L123.46825,38.0728546 L123.46825,37.0629092 L123.468452,37.0629092 Z M131.507391,29.5071524 C132.057908,28.3813659 132.862892,27.7387614 133.988689,27.7387614 C134.401568,27.7387614 134.814469,27.8308493 134.97387,27.9229371 L134.97387,30.8161998 L134.86005,30.8161998 C134.515506,30.6775947 134.102669,30.5865387 133.528356,30.5865387 C132.586735,30.5865387 131.852117,31.1380871 131.598628,32.1935286 L131.598628,38.0730248 L128.567717,38.0730248 L128.567717,27.8537941 L131.507465,27.8537941 L131.507465,29.5073758 M143.013809,34.6053858 L143.013809,31.3210927 C142.508852,30.586411 141.843463,30.2655981 141.084028,30.2655981 C139.753291,30.2655981 138.857197,31.2309941 138.857197,32.9756105 C138.857197,34.7202483 139.753291,35.6618697 141.084028,35.6618697 C141.843463,35.6618697 142.508842,35.3400675 143.013809,34.6053858 Z M143.104897,37.0173706 C142.462293,37.8442146 141.451369,38.3025796 140.074093,38.3025796 C137.455168,38.3025796 135.778855,35.9153374 135.778855,32.9756956 C135.778855,30.0360539 137.455168,27.6249839 140.074082,27.6249839 C141.405819,27.6249839 142.370215,28.0388846 143.013809,28.7963729 L143.013809,23.7219141 L146.045613,23.7219141 L146.045613,38.0729184 L143.104908,38.0729184 L143.104908,37.017477 L143.104897,37.0173706 Z M0,42.7601657 L8.8657084,42.7601657 L8.8657084,44.5048035 L1.99810538,44.5048035 L1.99810538,48.8901298 L8.22212525,48.8901298 L8.22212525,50.5901969 L1.99810538,50.5901969 L1.99810538,55.3666387 L8.8657084,55.3666387 L8.8657084,57.1112764 L0,57.1112764 L0,42.7601657 M16.1917509,46.8009365 C18.4651199,46.8009365 19.7285329,48.2940639 19.7285329,50.7496194 L19.7285329,57.1112658 L17.822526,57.1112658 L17.822526,50.7960623 C17.822526,49.4870255 17.1562001,48.5454041 15.709622,48.5454041 C14.5155753,48.5454041 13.5045981,49.3038497 13.1600532,50.3820552 L13.1600532,57.1110531 L11.2540463,57.1110531 L11.2540463,47.0076635 L13.1600532,47.0076635 L13.1600532,48.4770057 C13.7571297,47.5353842 14.7681069,46.8006812 16.1919211,46.8006812 M24.8515194,47.0078869 L27.4466694,47.0078869 L27.4466694,48.6386407 L24.8515194,48.6386407 L24.8515194,54.0804404 C24.8515194,55.2280016 25.4485747,55.6191171 26.5278226,55.6191171 C26.8257758,55.6191171 27.1475567,55.5735891 27.3773243,55.4814906 L27.4465737,55.4814906 L27.4465737,57.1112658 C27.1712781,57.2260432 26.7801414,57.318163 26.2524207,57.318163 C23.8859213,57.318163 22.9453636,56.2379364 22.9453636,54.2644885 L22.9453636,48.6385876 L21.1997685,48.6385876 L21.1997685,47.0078762 L22.9453636,47.0078762 L22.9453636,44.3225744 L24.8513705,44.3225744 L24.8513705,47.0077699 M30.6388852,51.071411 L35.6687947,51.071411 C35.6004707,49.5792729 34.8647997,48.431701 33.3033591,48.431701 C31.8567596,48.431701 30.9141489,49.510949 30.6388852,51.071411 Z M33.6479146,57.3182162 C30.6844452,57.3182162 28.6635545,55.3428748 28.6635545,52.1744229 C28.6635545,49.0049923 30.5467974,46.8009471 33.2805738,46.8009471 C36.0599101,46.8009471 37.5064883,48.7990419 37.5064883,51.7605434 L37.5064883,52.6338516 L30.569572,52.6338516 C30.7765117,54.6775063 32.0864633,55.6646557 33.9004036,55.6646557 C35.0262646,55.6646557 35.8292809,55.4121774 36.7253743,54.7458196 L36.7947301,54.7458196 L36.7947301,56.4231226 C35.9679924,57.0657272 34.8877658,57.3182055 33.6480848,57.3182055 L33.6479146,57.3182162 Z M41.6631002,48.5693275 C42.0997649,47.4900583 43.0651396,46.8474751 44.1661836,46.8474751 C44.6038056,46.8474751 44.9939318,46.9157884 45.1543329,47.0078869 L45.1543329,48.8901298 L45.0860409,48.8901298 C44.809788,48.7534926 44.3503593,48.68419 43.8909305,48.68419 C42.8582531,48.68419 41.9849237,49.3723226 41.6631427,50.5208944 L41.6631427,57.1112871 L39.7571358,57.1112871 L39.7571358,47.0078975 L41.6631427,47.0078975 L41.6631427,48.5693594 M51.3090396,55.5953425 C53.1922825,55.5953425 54.295305,54.103215 54.295305,52.0585817 C54.295305,50.038691 53.1922931,48.5237782 51.3090396,48.5237782 C50.2753409,48.5237782 49.3109448,49.1436188 48.8059562,50.1297896 L48.8059562,54.0121165 C49.3109448,54.9983086 50.2753409,55.5953531 51.3090396,55.5953531 L51.3090396,55.5953425 Z M51.6308418,46.8009365 C54.6388819,46.8009365 56.2468718,49.25846 56.2468718,52.0585711 C56.2468718,54.8616607 54.6388181,57.3182055 51.630778,57.3182055 C50.3901396,57.3182055 49.3336344,56.675601 48.8059136,55.9854687 L48.8059136,60.9926141 L46.8989494,60.9926141 L46.8989494,47.0078869 L48.8059136,47.0078869 L48.8059136,48.1554481 C49.3336344,47.443541 50.3901396,46.8009365 51.630778,46.8009365 L51.6308418,46.8009365 Z M60.4044623,48.5693275 C60.8401271,47.4900583 61.8055125,46.8474751 62.9075457,46.8474751 C63.3441892,46.8474751 63.7343047,46.9157884 63.8946952,47.0078869 L63.8946952,48.8901298 L63.8264032,48.8901298 C63.5511289,48.7534926 63.0917108,48.68419 62.6322821,48.68419 C61.5985409,48.68419 60.7261688,49.3723226 60.4043879,50.5208944 L60.4043879,57.1112871 L58.498381,57.1112871 L58.498381,47.0078975 L60.4043879,47.0078975 L60.4043879,48.5693594 M66.6512568,42.9205775 C67.3176253,42.9205775 67.8681419,43.4483195 67.8681419,44.114688 C67.8681419,44.7810564 67.3176253,45.3087984 66.6512568,45.3087984 C66.0086523,45.3087984 65.4333825,44.7810564 65.4333825,44.114688 C65.4333825,43.4483195 66.0086523,42.9205775 66.6512568,42.9205775 M65.7096354,57.1112764 L67.6166422,57.1112764 L67.6166422,47.0078869 L65.7095716,47.0078869 L65.7095716,57.1112764 L65.7096354,57.1112764 Z M74.4149427,51.2100268 C75.8615421,51.6684662 77.4685321,52.2655215 77.4685321,54.1943136 C77.4685321,56.2617216 75.7694542,57.3181949 73.5881731,57.3181949 C72.2555213,57.3181949 70.9237205,56.9964139 70.1652749,56.3993374 L70.1652749,54.585429 L70.2573947,54.585429 C71.1079601,55.3656494 72.3704051,55.7102263 73.5644517,55.7102263 C74.6437209,55.7102263 75.6091701,55.2963256 75.6091701,54.424028 C75.6091701,53.5289345 74.8061538,53.3219948 73.2200131,52.7942527 C71.796199,52.334824 70.211973,51.8060927 70.211973,49.9010645 C70.211973,47.9485084 71.818963,46.8009365 73.8636814,46.8009365 C75.0577918,46.8009365 76.1142651,47.0534255 76.9638094,47.6277061 L76.9638094,49.4653997 L76.8954641,49.4653997 C76.0696838,48.7990419 75.1033305,48.4079371 73.9092307,48.4079371 C72.7151309,48.4079371 72.0487518,48.9366684 72.0487518,49.6485755 C72.0487518,50.4525704 72.7834442,50.6812955 74.4151873,51.2100374 M81.0983912,51.071411 L86.127322,51.071411 C86.0589874,49.5792729 85.3243057,48.431701 83.7618651,48.431701 C82.3152657,48.431701 81.3736442,49.510949 81.0983912,51.071411 Z M84.1064314,57.3182162 C81.1439193,57.3182162 79.1230605,55.3428748 79.1230605,52.1744229 C79.1230605,49.0049923 81.0063034,46.8009471 83.7390905,46.8009471 C86.5193842,46.8009471 87.965005,48.7990419 87.965005,51.7605434 L87.965005,52.6338516 L81.0290036,52.6338516 C81.2359007,54.6775063 82.5448311,55.6646557 84.3588246,55.6646557 C85.4855366,55.6646557 86.2885529,55.4121774 87.1836889,54.7458196 L87.2529383,54.7458196 L87.2529383,56.4231226 C86.427158,57.0657272 85.3469314,57.3182055 84.1062931,57.3182055 L84.1064314,57.3182162 Z" fill="#9060EB" fill-rule="nonzero"></path>
    </g>
</svg>