<?xml version="1.0" encoding="UTF-8"?>
<svg width="151px" height="39px" viewBox="0 0 151 39" version="1.1" xmlns="http://www.w3.org/2000/svg" xmlns:xlink="http://www.w3.org/1999/xlink">
    <!-- Generator: Sketch 49.1 (51147) - http://www.bohemiancoding.com/sketch -->
    <title>microfocus</title>
    <desc>Created with Sketch.</desc>
    <defs></defs>
    <g id="microfocus" stroke="none" stroke-width="1" fill="none" fill-rule="evenodd">
        <path d="M30.89487,7.49037 L38.35237,7.49037 L38.35237,38.38537 L7.45737,38.38537 L7.45737,30.92912 L30.89487,30.92912 L30.89487,7.4905 L7.45625,7.4905 L7.45625,30.928 L0,30.928 L0,0.033 L30.895,0.033 L30.895,7.4905 Z M65.21,16.57962 L61.9675,16.57962 L61.9675,5.73962 L57.28625,12.60212 L55.33625,12.60212 L50.63,5.73962 L50.63,16.57962 L47.3875,16.57962 L47.3875,0.04712 L50.63,0.04712 L56.335,8.27587 L62.04125,0.04712 L65.21,0.04712 L65.21,16.57962 Z M76.7765,0.047 L76.7765,16.5795 L73.53275,16.5795 L73.53275,0.047 L76.7765,0.047 Z M101.3155,11.23387 L101.3155,14.93887 C101.3155,15.85762 100.608,16.57887 99.68175,16.57887 L86.7105,16.57887 C85.80925,16.57887 85.10175,15.85762 85.10175,14.93887 L85.10175,1.71262 C85.10175,0.76762 85.80925,0.04762 86.7105,0.04762 L99.68175,0.04762 C100.608,0.04762 101.3155,0.76762 101.3155,1.71262 L101.3155,5.39262 L98.073,5.01887 L98.073,3.27887 L88.34425,3.27887 L88.34425,13.34762 L98.073,13.34762 L98.073,11.63137 L101.3155,11.23387 Z M125.85462,16.579 L120.97712,9.9665 L124.22087,9.9665 C125.14587,9.9665 125.85462,9.24525 125.85462,8.3265 L125.85462,1.71275 C125.85462,0.76775 125.14587,0.0465 124.22087,0.0465 L109.63962,0.0465 L109.63962,16.579 L112.88337,16.579 L112.88337,9.9665 L116.90712,9.9665 L121.75712,16.579 L125.85462,16.579 Z M122.61087,6.734 L112.88462,6.734 L112.88462,3.27775 L122.61087,3.27775 L122.61087,6.734 Z M150.39187,1.713 C150.39187,0.768 149.68562,0.04675 148.75937,0.04675 L135.78812,0.04675 C134.88562,0.04675 134.17812,0.768 134.17812,1.713 L134.17812,14.938 C134.17812,15.85925 134.88562,16.57925 135.78812,16.57925 L148.75937,16.57925 C149.68562,16.57925 150.39187,15.85925 150.39187,14.938 L150.39187,1.713 Z M147.14937,13.34675 L137.42187,13.34675 L137.42187,3.27925 L147.14937,3.27925 L147.14937,13.34675 Z M63.60012,25.06787 L50.62887,25.06787 L50.62887,28.47287 L60.35637,28.47287 L60.35637,31.72912 L50.62887,31.72912 L50.62887,38.36787 L47.38637,38.36787 L47.38637,21.83662 L63.60012,21.83662 L63.60012,25.06787 Z M84.32987,23.50137 C84.32987,22.55637 83.62237,21.83637 82.69487,21.83637 L69.72487,21.83637 C68.82362,21.83637 68.11737,22.55637 68.11737,23.50137 L68.11737,36.72762 C68.11737,37.64762 68.82362,38.36762 69.72487,38.36762 L82.69487,38.36762 C83.62237,38.36762 84.32987,37.64762 84.32987,36.72762 L84.32987,23.50137 Z M81.08737,35.13637 L71.35987,35.13637 L71.35987,25.06887 L81.08737,25.06887 L81.08737,35.13637 Z M106.349,33.02262 L106.349,36.72762 C106.349,37.64762 105.64275,38.36762 104.71525,38.36762 L91.74525,38.36762 C90.84275,38.36762 90.1365,37.64762 90.1365,36.72762 L90.1365,23.50137 C90.1365,22.55637 90.84275,21.83512 91.74525,21.83512 L104.71525,21.83512 C105.64275,21.83512 106.349,22.55637 106.349,23.50137 L106.349,27.18012 L103.1065,26.80887 L103.1065,25.06887 L93.379,25.06887 L93.379,35.13637 L103.1065,35.13637 L103.1065,33.42012 L106.349,33.02262 Z M128.36887,21.83512 L128.36887,36.72762 C128.36887,37.64762 127.66262,38.36762 126.73512,38.36762 L113.76387,38.36762 C112.86262,38.36762 112.15637,37.64762 112.15637,36.72762 L112.15637,21.83512 L115.39762,21.83512 L115.39762,35.13637 L125.12762,35.13637 L125.12762,21.83512 L128.36887,21.83512 Z M150.38825,30.13887 L150.38825,36.72762 C150.38825,37.64762 149.682,38.36762 148.7545,38.36762 L135.78325,38.36762 C134.882,38.36762 134.177,37.64762 134.177,36.72762 L134.177,33.02262 L137.417,33.42012 L137.417,35.13637 L147.147,35.13637 L147.147,31.73012 L135.78325,31.73012 C134.882,31.73012 134.177,30.98512 134.177,30.06512 L134.177,23.50137 C134.177,22.55637 134.882,21.83512 135.78325,21.83512 L148.7545,21.83512 C149.682,21.83512 150.38825,22.55637 150.38825,23.50137 L150.38825,27.18012 L147.147,26.80887 L147.147,25.06887 L137.417,25.06887 L137.417,28.47387 L148.7545,28.47387 C149.682,28.47387 150.38825,29.22012 150.38825,30.13887 Z" id="shape" fill="#9060EB" fill-rule="nonzero"></path>
    </g>
</svg>