<svg xmlns="http://www.w3.org/2000/svg" width="1800" height="1440" viewBox="0 0 1800 1440">
  <g fill="none" fill-rule="evenodd">
    <rect width="42.802" height="42.832" x="1220.833" y="1198.987" stroke="#6095EB" stroke-width="2" style="mix-blend-mode:darken" transform="rotate(-28 1242.234 1220.403)"/>
    <polygon stroke="#EBDA60" stroke-width="4" points="1258.155 948.031 1286.141 968.167 1275.452 1000.747 1240.859 1000.747 1230.17 968.167" style="mix-blend-mode:darken" transform="rotate(-50 1258.155 974.389)"/>
    <polygon stroke="#EBDA60" stroke-width="2" points="716.097 1155.886 744.083 1176.022 733.393 1208.602 698.801 1208.602 688.111 1176.022" style="mix-blend-mode:darken"/>
    <polygon stroke="#60EB9F" stroke-width="2" points="1010.982 1174.78 1038.968 1194.916 1028.278 1227.497 993.686 1227.497 982.996 1194.916" style="mix-blend-mode:darken" transform="rotate(-20 1010.982 1201.138)"/>
    <polygon stroke="#60EB9F" stroke-width="2" points="1572.912 905.039 1600.897 925.175 1590.208 957.755 1555.615 957.755 1544.926 925.175" style="mix-blend-mode:darken" transform="rotate(50 1572.912 931.397)"/>
    <rect width="42.802" height="42.832" x="1336.018" y="1009.101" stroke="#6095EB" stroke-width="2" style="mix-blend-mode:darken" transform="rotate(-28 1357.419 1030.517)"/>
    <rect width="42.802" height="42.832" x="959.401" y="1350.942" stroke="#6095EB" stroke-width="2" style="mix-blend-mode:darken" transform="rotate(-28 980.802 1372.358)"/>
    <rect width="42.802" height="42.832" x="762.09" y="1251.653" stroke="#6095EB" stroke-width="4" style="mix-blend-mode:darken" transform="rotate(-28 783.491 1273.07)"/>
    <polygon stroke="#60EBE1" stroke-width="2" points="1270.448 859.312 1292.837 898.849 1248.059 898.849" style="mix-blend-mode:darken" transform="rotate(-64 1270.448 879.08)"/>
    <polygon stroke="#60EBE1" stroke-width="2" points="1452.891 944.794 1475.28 984.331 1430.503 984.331" style="mix-blend-mode:darken" transform="rotate(16 1452.891 964.562)"/>
    <polygon stroke="#60EBE1" stroke-width="4" points="879.868 1303.423 902.257 1342.961 857.479 1342.961" style="mix-blend-mode:darken" transform="rotate(-54 879.868 1323.192)"/>
    <polygon stroke="#60EBE1" stroke-width="2" points="1176.533 1280.998 1198.921 1320.535 1154.144 1320.535" style="mix-blend-mode:darken" transform="rotate(-54 1176.533 1300.767)"/>
    <rect width="47.411" height="47.445" x="1314.661" y="1101.735" stroke="#9060EB" stroke-width="2" rx="23.706" style="mix-blend-mode:darken" transform="rotate(-20 1338.367 1125.457)"/>
    <rect width="47.411" height="47.445" x="1130.224" y="1197.616" stroke="#9060EB" stroke-width="2" rx="23.706" style="mix-blend-mode:darken" transform="rotate(-20 1153.93 1221.338)"/>
    <rect width="47.411" height="47.445" x="1514.465" y="1019.195" stroke="#9060EB" stroke-width="2" rx="23.706" style="mix-blend-mode:darken" transform="rotate(-20 1538.17 1042.917)"/>
    <polygon stroke="#EB6060" stroke-width="4" points="1187.386 1102.152 1171.107 1113.633 1177.001 1094.61 1161.046 1082.682 1180.967 1082.406 1187.386 1063.553 1193.804 1082.406 1213.725 1082.682 1197.771 1094.61 1203.664 1113.633" style="mix-blend-mode:darken" transform="rotate(-9 1187.386 1088.593)"/>
    <polygon stroke="#EB6060" stroke-width="2" points="803.446 1413.653 787.168 1425.135 793.061 1406.111 777.107 1394.183 797.028 1393.907 803.446 1375.054 809.865 1393.907 829.786 1394.183 813.832 1406.111 819.725 1425.135" style="mix-blend-mode:darken" transform="rotate(-49 803.446 1400.094)"/>
    <polygon stroke="#EB6060" stroke-width="2" points="1070.369 1324.916 1054.091 1336.398 1059.984 1317.374 1044.03 1305.446 1063.951 1305.17 1070.369 1286.317 1076.788 1305.17 1096.709 1305.446 1080.754 1317.374 1086.648 1336.398" style="mix-blend-mode:darken" transform="rotate(-29 1070.37 1311.357)"/>
    <polygon stroke="#FD6FFF" stroke-width="2" points="940.382 1064.414 924.103 1075.896 929.997 1056.872 914.043 1044.945 933.964 1044.669 940.382 1025.815 946.801 1044.669 966.722 1044.945 950.767 1056.872 956.661 1075.896" style="mix-blend-mode:darken" transform="rotate(-39 940.382 1050.856)"/>
    <rect width="42.802" height="42.832" x="1058.775" y="1101.181" stroke="#6095EB" stroke-width="4" style="mix-blend-mode:darken" transform="rotate(-28 1080.176 1122.597)"/>
    <rect width="42.802" height="42.832" x="743.272" y="984.316" stroke="#6095EB" stroke-width="2" style="mix-blend-mode:darken" transform="rotate(-28 764.673 1005.732)"/>
    <polygon stroke="#60EBE1" stroke-width="2" points="840.326 1108.143 862.715 1147.681 817.937 1147.681" style="mix-blend-mode:darken" transform="rotate(16 840.326 1127.912)"/>
    <rect width="47.411" height="47.445" x="885.717" y="1222.796" stroke="#9060EB" stroke-width="2" rx="23.706" style="mix-blend-mode:darken" transform="rotate(-20 909.423 1246.518)"/>
    <polygon stroke="#FD6FFF" stroke-width="4" points="1430.597 1167.156 1414.318 1178.638 1420.212 1159.614 1404.257 1147.687 1424.179 1147.411 1430.597 1128.558 1437.015 1147.411 1456.937 1147.687 1440.982 1159.614 1446.876 1178.638" style="mix-blend-mode:darken" transform="rotate(-19 1430.597 1153.598)"/>
    <rect width="42.802" height="42.832" x="455.043" y="1324.75" stroke="#6095EB" stroke-width="2" style="mix-blend-mode:darken" transform="scale(-1 1) rotate(-63 0 2123.652)"/>
    <polygon stroke="#EBDA60" stroke-width="2" points="604.51 1109.153 632.496 1129.288 621.807 1161.869 587.214 1161.869 576.524 1129.288" style="mix-blend-mode:darken" transform="scale(-1 1) rotate(-85 0 1795.218)"/>
    <polygon stroke="#60EB9F" stroke-width="2" points="676.925 1436.667 704.91 1456.803 694.221 1489.384 659.628 1489.384 648.939 1456.803" style="mix-blend-mode:darken" transform="scale(-1 1) rotate(-55 0 2763.386)"/>
    <polygon stroke="#60EB9F" stroke-width="2" points="371.336 893.399 399.322 913.535 388.632 946.115 354.04 946.115 343.35 913.535" style="mix-blend-mode:darken" transform="scale(-1 1) rotate(15 0 -1900.822)"/>
    <rect width="42.802" height="42.832" x="469.604" y="1103.137" stroke="#6095EB" stroke-width="5" style="mix-blend-mode:darken" transform="scale(-1 1) rotate(-63 0 1925.8)"/>
    <polygon stroke="#60EBE1" stroke-width="2" points="649.107 1030.619 671.496 1070.156 626.719 1070.156" style="mix-blend-mode:darken" transform="scale(1 -1) rotate(81 1878.953 0)"/>
    <polygon stroke="#60EBE1" stroke-width="2" points="450.628 995.997 473.017 1035.534 428.24 1035.534" style="mix-blend-mode:darken" transform="scale(-1 1) rotate(-19 0 3708.615)"/>
    <polygon stroke="#60EBE1" stroke-width="2" points="484.169 1429.912 506.558 1469.449 461.781 1469.449" style="mix-blend-mode:darken" transform="scale(-1 1) rotate(-89 0 1942.375)"/>
    <rect width="47.411" height="47.445" x="428.45" y="1189.529" stroke="#9060EB" stroke-width="2" rx="23.706" style="mix-blend-mode:darken" transform="scale(-1 1) rotate(-55 0 2081.834)"/>
    <rect width="47.411" height="47.445" x="524.537" y="1373.859" stroke="#9060EB" stroke-width="5" rx="23.706" style="mix-blend-mode:darken" transform="scale(-1 1) rotate(-55 0 2450.746)"/>
    <rect width="47.411" height="47.445" x="312.123" y="1007.313" stroke="#9060EB" stroke-width="2" rx="23.706" style="mix-blend-mode:darken" transform="scale(-1 1) rotate(-55 0 1676.157)"/>
    <polygon stroke="#EB6060" stroke-width="2" points="596.977 1283.212 580.698 1294.693 586.592 1275.67 570.637 1263.742 590.558 1263.466 596.977 1244.613 603.395 1263.466 623.316 1263.742 607.362 1275.67 613.255 1294.693" style="mix-blend-mode:darken" transform="scale(-1 1) rotate(-44 0 2747.222)"/>
    <rect width="42.802" height="42.832" x="643.893" y="1337.584" stroke="#6095EB" stroke-width="2" style="mix-blend-mode:darken" transform="scale(-1 1) rotate(-63 0 2444.661)"/>
    <rect width="42.802" height="42.832" x="969.369" y="1422.819" stroke="#6095EB" stroke-width="2" style="mix-blend-mode:darken" transform="scale(-1 1) rotate(-63 0 3061.026)"/>
    <polygon stroke="#FD6FFF" stroke-width="2" points="360.464 1196.96 344.186 1208.442 350.079 1189.418 334.125 1177.49 354.046 1177.215 360.464 1158.361 366.883 1177.215 386.804 1177.49 370.85 1189.418 376.743 1208.442" style="mix-blend-mode:darken" transform="scale(-1 1) rotate(-54 0 1890.853)"/>
  </g>
</svg>
