<svg xmlns="http://www.w3.org/2000/svg" width="1800" height="1440" viewBox="0 0 1800 1440">
  <defs>
    <linearGradient id="artboard-3-a" x1="100%" x2="0%" y1="50%" y2="50%">
      <stop offset="0%" stop-color="#9060EB"/>
      <stop offset="100%" stop-color="#F199F7"/>
    </linearGradient>
  </defs>
  <g fill="none" fill-rule="evenodd">
    <path fill="#60EBE1" d="M354.173565,1164.94832 L368.452715,1164.94832 C404.15077,1166.99041 421.99953,1171.79775 421.99953,1179.37049 C425.059363,1179.37049 429.224074,1196.60034 434.493786,1231.06056 L434.493786,1263.22327 C434.493786,1294.87562 422.594613,1322.31576 398.79591,1345.5445 C385.111656,1352.6918 374.997359,1356.2654 368.452715,1356.2654 L363.098034,1356.2654 C323.830174,1350.99001 304.196538,1339.67361 304.196538,1322.31587 L304.196538,1316.95542 C304.196538,1315.25368 307.76629,1311.63754 314.905901,1306.10689 L327.400158,1306.10689 C335.134736,1313.33928 339.299447,1316.95542 339.894414,1316.95542 C353.323682,1316.95542 362.843021,1304.40528 368.452715,1279.30463 C366.15784,1278.11341 364.372964,1277.51781 363.098034,1277.51781 C352.388617,1279.98533 344.654155,1281.21908 339.894414,1281.21908 L320.260582,1281.21908 C290.257217,1281.21908 270.028623,1269.26454 259.574193,1245.3551 C258.384257,1243.3981 257.789299,1240.4201 257.789299,1236.42101 L257.789299,1223.91329 C257.789299,1204.68364 284.562438,1185.62445 338.10952,1166.73514 C344.569168,1165.54392 349.923796,1164.94832 354.173565,1164.94832 Z M291.702281,1232.97501 C292.977212,1241.90914 304.281426,1247.26954 325.615264,1249.05637 L338.10952,1249.05637 C360.718288,1244.46167 372.022503,1240.24993 372.022503,1236.42101 L372.022503,1207.83194 C372.022503,1200.68463 368.452751,1197.11103 361.31314,1197.11103 L355.958459,1197.11103 C313.120793,1209.7039 291.702281,1221.65844 291.702281,1232.97501 Z M475.144322,1142.99959 L480.46967,1142.43988 C496.272177,1143.17452 508.13259,1147.87397 516.051265,1156.53836 C518.458085,1157.48317 520.29544,1157.88894 521.563386,1157.75567 C529.771887,1152.10181 539.581748,1148.67523 550.993265,1147.47583 C570.857757,1145.38799 587.36257,1154.43311 600.508199,1174.61147 L601.255292,1181.71959 C602.020177,1188.99698 598.56311,1195.94802 590.883986,1202.57291 L583.783522,1203.3192 C573.893541,1204.35868 567.821161,1197.81035 565.566199,1183.674 C558.59933,1180.81292 553.678963,1179.53342 550.804952,1179.8355 C525.6414,1190.86474 514.118184,1206.44902 516.234959,1226.58878 C518.145997,1270.7913 514.536964,1293.37198 505.407751,1294.3315 L496.532171,1295.26436 C492.559272,1295.68193 489.534071,1295.35823 487.456476,1294.29326 L477.005895,1297.31666 L475.230779,1297.50323 C465.932506,1298.48052 459.045823,1295.56828 454.570523,1288.76642 L453.449883,1278.10424 C448.964578,1197.21225 449.469136,1156.47812 454.96357,1155.90063 C460.809794,1148.09949 467.536644,1143.79919 475.144322,1142.99959 Z M668.578118,1172.14495 C699.091455,1172.14495 721.104926,1184.09948 734.619189,1208.00892 C740.568865,1218.90005 743.543658,1227.19591 743.543658,1232.89673 L743.543658,1247.19127 C743.543658,1279.35414 723.910023,1306.79428 684.642162,1329.5125 C668.153061,1334.27737 656.848847,1336.65977 650.72918,1336.65977 C627.270458,1336.65977 605.851947,1321.72723 586.473003,1291.8617 C584.093132,1283.69335 582.903215,1276.54616 582.903215,1270.4199 L582.903215,1263.27263 C582.903215,1238.68249 600.751975,1212.4761 636.450029,1184.65267 C644.524589,1176.31414 655.233845,1172.14495 668.578118,1172.14495 Z M654.298968,1256.25299 C655.488903,1280.3326 661.438489,1293.98885 672.147906,1297.22216 C687.532067,1291.09589 698.836282,1279.7795 706.060888,1263.27263 C709.630694,1254.08323 711.41557,1247.53164 711.41557,1243.61764 L711.41557,1240.17163 C706.655829,1222.30337 698.326408,1213.36937 686.427056,1213.36937 L684.642162,1213.36937 C672.232839,1213.36937 662.118542,1225.87697 654.298968,1250.89254 L654.298968,1256.25299 Z M808.158706,1179.34157 C833.147344,1180.27752 845.641476,1186.23352 845.641476,1197.20974 L847.42637,1197.20974 C858.135786,1194.91239 865.870249,1193.76374 870.629989,1193.76374 C877.089637,1193.76374 886.608976,1200.27279 899.18829,1213.2911 C901.483165,1213.2911 912.192421,1207.9307 931.316379,1197.20974 C936.07612,1196.01852 940.24083,1195.42292 943.810636,1195.42292 C967.864325,1195.42292 980.953415,1212.09972 983.0783,1245.45381 L975.938724,1309.77923 L975.938724,1315.13968 C975.938724,1316.84142 972.368972,1320.41502 965.229361,1325.86058 L952.735105,1325.86058 C945.595494,1320.84045 942.025742,1316.1182 942.025742,1311.69368 L950.950211,1242.0078 C949.165308,1233.58419 945.595556,1229.37245 940.240848,1229.37245 C929.021459,1232.26541 918.907162,1245.41115 909.897653,1268.81006 C906.582834,1290.25198 899.44333,1300.97277 888.478927,1300.97277 L883.124246,1300.97277 C874.7947,1294.67634 870.629989,1289.31594 870.629989,1284.89142 L874.199777,1249.02744 C872.074893,1235.92405 869.100099,1229.37245 865.275308,1229.37245 C852.526003,1229.37245 843.006664,1254.38764 836.717007,1304.41878 C830.512345,1325.94578 822.182924,1336.70912 811.728493,1336.70912 L809.9436,1336.70912 C783.765026,1336.70912 770.675936,1326.58392 770.675936,1306.33322 C776.625611,1252.47318 779.600405,1219.67264 779.600405,1207.93064 L779.600405,1193.76374 C780.620349,1187.89274 789.544729,1183.08539 806.373812,1179.34157 L808.158706,1179.34157 Z M1033.31031,1164.94832 C1058.29895,1165.88428 1070.79308,1171.84028 1070.79308,1182.8165 L1072.57798,1182.8165 C1083.28739,1180.51915 1091.02185,1179.37049 1095.78159,1179.37049 C1102.24124,1179.37049 1111.76058,1185.87955 1124.3399,1198.89785 C1126.63477,1198.89785 1137.34403,1193.53745 1156.46798,1182.8165 C1161.22773,1181.62528 1165.39244,1181.02968 1168.96224,1181.02968 C1193.01593,1181.02968 1206.10502,1197.70647 1208.22991,1231.06056 L1201.09033,1295.38598 L1201.09033,1300.74644 C1201.09033,1302.44818 1197.52058,1306.02177 1190.38097,1311.46734 L1177.88671,1311.46734 C1170.7471,1306.44721 1167.17735,1301.72495 1167.17735,1297.30043 L1176.10182,1227.61456 C1174.31691,1219.19095 1170.74716,1214.97921 1165.39245,1214.97921 C1154.17306,1217.87216 1144.05877,1231.0179 1135.04926,1254.41682 C1131.73444,1275.85873 1124.59494,1286.57953 1113.63053,1286.57953 L1108.27585,1286.57953 C1099.94631,1280.28309 1095.78159,1274.92269 1095.78159,1270.49817 L1099.35138,1234.6342 C1097.2265,1221.53081 1094.2517,1214.97921 1090.42691,1214.97921 C1077.67761,1214.97921 1068.15827,1239.9944 1061.86861,1290.02553 C1055.66395,1311.55253 1047.33453,1322.31587 1036.8801,1322.31587 L1035.09521,1322.31587 C1008.91663,1322.31587 995.827541,1312.19068 995.827541,1291.93998 C1001.77722,1238.07993 1004.75201,1205.2794 1004.75201,1193.5374 L1004.75201,1179.37049 C1005.77195,1173.49949 1014.69633,1168.69215 1031.52542,1164.94832 L1033.31031,1164.94832 Z M1304.86916,1181.3258 C1327.39293,1181.3258 1352.38119,1205.14979 1379.8347,1252.79849 L1379.8347,1258.15894 C1379.8347,1269.90094 1358.41618,1280.62174 1315.57852,1290.32165 C1306.31402,1295.17161 1286.68039,1299.38335 1256.67702,1302.957 C1255.48709,1305.25435 1254.89213,1307.04115 1254.89213,1308.31745 C1260.33183,1329.75937 1271.04109,1340.48016 1287.02022,1340.48016 L1292.3749,1340.48016 C1315.49364,1340.48016 1338.10207,1329.12123 1360.20086,1306.40301 L1374.48001,1306.40301 C1380.42969,1309.46614 1383.40448,1314.23094 1383.40448,1320.69754 L1383.40448,1327.84481 C1358.92582,1357.71034 1329.77284,1372.64288 1295.94469,1372.64288 L1278.09575,1372.64288 C1253.10711,1372.64288 1234.66339,1353.54114 1222.76404,1315.33709 C1221.57411,1306.91348 1220.97915,1299.76629 1220.97915,1293.89529 C1220.97915,1247.86324 1242.99262,1210.93605 1287.02022,1183.11261 C1297.47465,1181.9214 1303.42423,1181.3258 1304.86916,1181.3258 Z M1274.52596,1240.29077 L1278.09575,1242.07758 C1305.46426,1237.65306 1319.14831,1232.93081 1319.14831,1227.91068 C1315.6635,1219.48707 1310.30887,1215.27532 1303.08426,1215.27532 C1292.79982,1215.27532 1283.28048,1223.61372 1274.52596,1240.29077 Z M1431.49733,1083 C1451.84991,1084.83029 1462.16855,1088.46444 1462.45355,1093.90254 L1463.5824,1115.44242 C1462.5729,1141.65287 1462.09933,1155.35268 1462.16167,1156.54227 C1464.56054,1156.84256 1465.81117,1157.96986 1465.91359,1159.92417 C1479.28465,1156.83772 1489.91689,1155.08768 1497.81062,1154.67398 C1508.71911,1158.19207 1514.38034,1163.90215 1514.79448,1171.8044 L1515.07502,1177.1575 C1515.15963,1178.77194 1511.7818,1182.52747 1504.94143,1188.4242 L1503.15898,1188.51761 C1474.63967,1190.01224 1460.50269,1193.0962 1460.74761,1197.76957 L1463.18568,1244.29061 C1463.37271,1247.85936 1470.62489,1249.82236 1484.94243,1250.17966 L1490.66383,1257.03689 L1491.41195,1271.31184 C1492.16007,1285.58685 1476.49226,1293.56498 1444.40804,1295.24644 L1439.0607,1295.52668 C1419.3665,1283.52264 1408.83156,1264.39299 1407.45555,1238.13715 L1405.68544,1204.3616 C1405.59193,1202.57722 1403.71599,1200.88628 1400.05756,1199.28874 L1384.01553,1200.12946 C1377.91369,1197.38191 1374.69138,1192.73685 1374.34849,1186.19413 L1374.26166,1184.53722 C1373.63377,1172.5564 1384.01441,1166.0056 1405.40389,1164.88462 L1407.00599,1161.34993 C1404.44545,1112.49197 1407.91835,1087.81426 1417.42478,1087.31605 C1417.30009,1084.93688 1421.9909,1083.49821 1431.49733,1083 Z"/>
    <path fill="url(#artboard-3-a)" d="M285.401998,1233.27357 L288.214016,1236.46064 L291.400971,1236.46064 L291.775906,1233.27357 C326.895068,1242.27238 343.579544,1255.0205 341.829835,1271.51832 L345.954129,1290.64069 L339.58022,1290.64069 C340.455075,1282.14181 338.767881,1277.89244 334.518587,1277.89244 L331.331633,1277.89244 L333.018844,1293.82775 L332.45644,1297.01481 L326.082532,1297.01481 C321.833238,1297.01481 320.083555,1293.82778 320.83343,1287.45363 L317.27154,1290.64069 L314.084586,1290.64069 C303.461352,1282.14181 293.275698,1277.89244 283.527319,1277.89244 C262.280851,1277.89244 237.597825,1300.20165 209.477499,1344.82074 L199.354233,1379.87842 C196.229752,1408.12468 207.852646,1428.3092 234.223262,1440.43259 L233.47339,1446.80672 L227.099482,1446.80672 L226.724546,1449.99378 L233.098455,1449.99378 C248.220941,1449.99378 270.466909,1430.8716 299.837026,1392.62667 L300.211962,1389.4396 L297.025007,1389.4396 C280.152812,1409.8119 264.71811,1424.68471 250.720437,1434.05847 L247.533483,1434.05847 L287.089209,1392.62667 L264.780529,1392.62667 C265.280446,1388.37723 262.343478,1386.25254 255.969538,1386.25254 L253.15752,1383.06548 L253.532455,1379.87842 C253.907393,1375.62898 264.842911,1372.44195 286.339337,1370.31723 L287.089209,1363.94311 L283.527319,1367.13017 L264.405593,1367.13017 L247.72095,1344.82074 L251.282841,1341.63368 L251.470308,1338.44661 L286.339337,1341.63368 L370.137487,1332.07249 L370.512423,1328.88543 C359.889189,1328.88543 354.827607,1326.76074 355.327524,1322.51131 L358.514478,1322.51131 L361.326496,1325.69837 L364.888386,1322.51131 L368.075341,1322.51131 C390.69658,1329.01044 401.757075,1334.32216 401.257158,1338.44661 L401.069691,1341.63368 L397.5078,1344.82074 L397.132865,1348.0078 L409.880682,1348.0078 L409.13081,1354.38192 L405.943856,1354.38192 L354.390184,1360.75605 L354.015248,1363.94311 L357.202203,1363.94311 L386.259727,1360.75605 L385.509855,1367.13017 C364.263387,1367.13017 352.702982,1375.62892 350.828294,1392.62667 L335.643394,1443.61965 L338.642881,1446.80672 L338.267945,1449.99378 L333.206312,1465.92909 L333.768715,1491.42558 L326.832403,1497.79971 L329.456954,1500.98677 C320.708408,1503.7364 315.959269,1509.04812 315.209394,1516.92208 L305.648531,1516.92208 C301.399237,1516.92208 300.274441,1507.36099 302.274109,1488.23852 L299.087154,1488.23852 L296.650072,1510.54795 L287.089209,1510.54795 L288.77642,1494.61264 L288.026548,1472.30321 L281.65264,1472.30321 C269.529655,1480.80208 257.344364,1485.05146 245.0964,1485.05146 L229.161629,1485.05146 L223.72506,1478.67733 L223.912528,1475.49027 L230.286436,1475.49027 L230.661372,1472.30321 C186.543706,1472.30321 162.673033,1457.4304 159.048635,1427.68435 C156.549051,1413.93617 155.299277,1400.18819 155.299277,1386.44002 C155.299277,1377.94114 155.799186,1369.3799 156.79902,1360.75605 L157.361424,1354.38192 C159.236112,1338.13408 166.859731,1316.88721 180.232507,1290.64069 L183.419462,1290.64069 L182.66959,1297.01481 L170.671645,1319.32424 L170.484177,1322.51131 L173.671131,1322.51131 C175.795778,1303.13887 196.479529,1278.70498 235.723005,1249.20888 L238.909959,1249.20888 L239.284895,1246.02182 L236.097941,1246.02182 L226.162142,1249.20888 C232.411103,1238.58529 252.157525,1233.27357 285.401998,1233.27357 Z M207.825295,1195.96196 L211.026545,1195.96196 L186.169778,1218.42917 L186.546396,1215.21957 L207.825295,1195.96196 Z M254.512524,1202.38116 L254.32543,1205.59076 L276.589609,1205.59076 L276.776703,1202.38116 L254.512524,1202.38116 Z M185.768863,1218.42917 L185.213749,1221.63877 L171.335901,1234.47718 L171.705977,1231.26757 L185.768863,1218.42917 Z M326.891153,1269.38159 L339.720452,1269.38159 L332.551138,1275.80079 L326.891153,1269.38159 Z M232.327042,1377.70563 L235.482397,1377.70563 L228.614861,1384.12483 L225.459507,1384.12483 L232.327042,1377.70563 Z M247.91078,1409.80164 L274.826303,1396.96323 L275.573956,1390.54403 L272.396429,1390.54403 L247.91078,1409.80164 Z M224.844148,1419.02924 L224.657676,1422.23884 L240.507827,1422.23884 L240.694299,1419.02924 L224.844148,1419.02924 Z M447.702714,1157.84795 L485.934848,1157.84795 C530.539228,1166.22558 552.841084,1185.3563 552.841084,1215.24068 L552.841084,1234.3716 L520.980972,1279.01039 L524.166983,1279.01039 L556.027095,1250.31402 L556.027095,1256.69099 C545.15712,1280.94861 531.35121,1296.89088 514.608949,1304.51827 L495.492882,1310.89524 L495.492882,1323.64919 C500.115745,1323.64919 522.4176,1351.28245 562.399117,1406.54981 C570.89519,1410.0509 579.391135,1418.55345 587.887207,1432.05769 L587.887207,1435.24617 L571.957151,1422.49223 L571.957151,1425.68072 C582.577242,1436.93425 587.887207,1445.43679 587.887207,1451.1886 L584.701196,1451.1886 L568.77114,1460.75406 L565.585129,1460.75406 L559.213106,1451.1886 L556.027095,1454.37709 L552.841084,1454.37709 C510.360722,1419.61617 480.624915,1384.54318 463.63277,1349.15707 L447.702714,1317.27222 C440.206179,1317.27222 435.958207,1330.02603 434.958669,1355.53404 C436.333034,1376.79071 435.27104,1389.73208 431.772658,1394.35854 C425.525546,1399.48515 424.463553,1404.61168 428.586646,1409.73829 L428.586646,1416.11526 L419.028613,1416.11526 C414.780577,1416.11526 412.65659,1411.86399 412.65659,1403.36132 L409.470579,1403.36132 C409.470579,1411.86399 405.472487,1415.05244 397.476184,1412.92678 L383.420252,1394.17098 L387.168501,1365.0995 L387.168501,1352.34555 L406.284568,1263.06796 L409.470579,1263.06796 L409.470579,1275.82191 L412.65659,1275.82191 L428.586646,1208.86371 C424.33861,1208.86371 422.214624,1213.11498 422.214624,1221.61765 L419.028613,1221.61765 L419.028613,1215.24068 L399.912546,1215.24068 L399.912546,1212.0522 C399.912546,1207.80086 406.284504,1204.61241 419.028613,1202.48674 L419.028613,1199.29826 L412.65659,1199.29826 L393.540523,1205.67523 L390.354512,1205.67523 C390.354512,1201.42389 394.602484,1199.29826 403.098557,1199.29826 L403.098557,1196.10977 C394.602484,1196.10977 390.354512,1192.92132 390.354512,1186.54432 L447.702714,1157.84795 Z M450.774073,1272.99239 L453.963966,1272.99239 C487.364196,1256.96192 510.756516,1239.92981 524.141627,1221.89554 L524.141627,1215.50843 C524.141627,1208.24463 511.38218,1200.79308 485.862903,1193.15356 L466.723541,1199.54067 L450.774073,1272.99239 Z M502.492185,1205.18956 C506.768639,1214.88135 511.045029,1220.23063 515.321484,1221.23757 L515.321484,1214.81837 L502.492185,1205.18956 Z M521.736133,1224.04597 L518.528809,1240.09398 L521.736133,1240.09398 L524.943458,1236.88438 L524.943458,1224.04597 L521.736133,1224.04597 Z M403.866948,1233.67477 L407.074273,1233.67477 L407.074273,1243.30358 L403.866948,1256.14198 L400.659623,1256.14198 L400.659623,1246.51318 L403.866948,1233.67477 Z M512.114159,1246.51318 L496.077535,1268.98039 L499.28486,1268.98039 L515.321484,1249.72278 L515.321484,1246.51318 L512.114159,1246.51318 Z M544.187407,1252.93238 L550.602057,1252.93238 L547.394732,1262.56119 L544.187407,1262.56119 L544.187407,1252.93238 Z M397.452298,1262.56119 L400.659623,1262.56119 L400.659623,1275.39959 L397.452298,1275.39959 L397.452298,1262.56119 Z M391.037649,1303.8848 L391.037649,1316.7232 L394.244973,1316.7232 L394.244973,1303.8848 L391.037649,1303.8848 Z M486.856476,1399.37043 L486.856476,1402.58004 L499.685776,1415.41844 C495.535099,1405.72665 491.258709,1400.37737 486.856476,1399.37043 Z M502.492185,1421.83764 L502.492185,1425.04724 L515.321484,1434.67605 L515.321484,1431.46645 L502.492185,1421.83764 Z M701.409322,1170.68635 C726.430174,1170.68635 749.82432,1178.12854 771.592461,1193.01314 L768.402319,1196.20268 L768.402319,1199.39222 L781.162889,1218.52947 L774.782604,1218.52947 L771.592461,1215.33993 L768.402319,1215.33993 L777.972747,1285.50983 L781.162889,1285.50983 C781.162889,1274.87798 783.28963,1269.56213 787.543175,1269.56213 L787.543175,1282.32029 C787.543175,1294.32804 776.909472,1321.97045 755.641748,1365.24836 L758.831891,1365.24836 C743.819379,1385.88667 721.488604,1405.02373 691.838894,1422.6601 L675.888181,1425.84964 L672.698038,1425.84964 C622.155917,1425.84964 590.254809,1405.64942 576.993758,1365.24836 L564.233187,1346.11112 L567.42333,1342.92157 L564.233187,1320.59479 L564.233187,1314.2157 C564.233187,1296.57933 581.247111,1265.74741 615.27547,1221.71901 L615.27547,1224.90855 C599.637437,1245.9221 586.876994,1269.31184 576.993758,1295.07846 L576.993758,1298.268 L580.1839,1298.268 C587.940364,1267.12291 616.651361,1227.78563 666.317753,1180.25498 L643.986754,1193.01314 L640.796611,1193.01314 C640.796611,1183.25685 661.000646,1175.81466 701.409322,1170.68635 Z M685.650476,1224.80117 L682.463197,1221.61517 L682.463197,1224.80117 L685.650476,1227.98717 L663.339523,1247.10318 C645.715656,1247.10318 628.717005,1276.83889 612.343059,1336.31121 C612.343059,1353.3033 621.9048,1368.17116 641.02857,1380.91523 L644.215849,1380.91523 C667.464353,1380.91523 694.024746,1356.48946 723.897824,1307.6372 C734.52214,1284.39802 739.834219,1267.40618 739.834219,1256.66118 L739.834219,1231.17317 C739.834219,1225.30091 729.210062,1221.05295 707.961429,1218.42917 L704.77415,1218.42917 L701.586871,1221.61517 L698.399592,1221.61517 L698.399592,1218.42917 L685.650476,1224.80117 Z M777.9212,1234.47718 L784.33585,1234.47718 L784.33585,1250.52518 L777.9212,1250.52518 L777.9212,1234.47718 Z M615.550383,1269.38159 L605.928409,1288.63919 L609.135734,1288.63919 L618.757708,1269.38159 L615.550383,1269.38159 Z M739.834219,1288.63919 L727.00492,1320.33401 L736.626894,1320.33401 L746.248868,1298.14764 L743.041543,1288.63919 L739.834219,1288.63919 Z M761.884577,1301.4776 L758.677252,1311.1064 L758.677252,1317.5256 L761.884577,1317.5256 L765.091901,1304.6872 L765.091901,1301.4776 L761.884577,1301.4776 Z M573.855161,1314.316 L573.855161,1339.99281 L577.062486,1339.99281 L577.062486,1314.316 L573.855161,1314.316 Z M723.797595,1323.54361 L710.968296,1339.59161 L714.17562,1339.59161 L727.00492,1323.54361 L723.797595,1323.54361 Z M621.564117,1393.75363 L621.564117,1396.96323 L637.600741,1406.59204 L637.600741,1403.38244 L621.564117,1393.75363 Z M961.994915,1167.07555 L968.356109,1167.07555 L967.794828,1173.49475 L960.31107,1186.33316 L957.504661,1183.12356 L954.324064,1183.12356 L961.994915,1167.07555 Z M843.699099,1194.35716 L850.076761,1194.35716 L859.08052,1200.73077 L859.268098,1197.54397 C870.647905,1199.66851 878.713692,1204.9798 883.465699,1213.478 C890.843816,1213.478 898.471924,1235.78541 906.350252,1280.40091 L950.431153,1213.478 L953.807563,1210.29119 L956.996394,1210.29119 L956.808816,1213.478 L911.602445,1293.14814 L917.980107,1293.14814 C951.369212,1227.28716 971.252313,1194.35716 977.630007,1194.35716 L986.633766,1200.73077 L986.821344,1197.54397 C995.9502,1197.54397 1006.76711,1208.16655 1019.27239,1229.41202 L1018.3345,1238.97244 L1014.95809,1242.15925 L1017.77176,1245.34605 L1016.64629,1258.09327 L1010.26863,1258.09327 L1014.95809,1277.21411 L1008.76801,1312.26897 L1007.83011,1321.82939 L1010.83137,1325.01619 L1010.45621,1328.203 L1003.70339,1334.57661 L1009.33074,1340.95022 L1002.57792,1347.32383 L1008.20527,1353.69745 L1004.82886,1356.88425 L1001.64003,1356.88425 L1004.64128,1360.07106 L996.762994,1449.30162 C990.3853,1449.30162 986.946399,1452.48839 986.446187,1458.86203 C980.068493,1458.86203 976.37949,1464.17332 975.379067,1474.79606 L965.812574,1474.79606 L947.805057,1462.04884 L952.682093,1442.928 L947.992635,1423.80717 L969.56414,1286.77453 C958.93465,1297.89716 947.304911,1321.26683 934.674576,1356.88425 C933.5491,1369.25662 928.547062,1377.75468 919.668312,1382.3787 L916.47948,1382.3787 L916.667059,1379.19189 L920.231046,1376.00508 L920.606203,1372.81828 L917.60495,1369.63147 L924.545347,1363.25786 L925.295661,1353.69745 L918.917998,1353.69745 C918.042629,1365.31997 913.040591,1373.81803 903.911734,1379.19189 L900.722903,1379.19189 L886.279374,1363.25786 C880.651996,1363.25786 877.275621,1353.69754 876.150145,1334.57661 C865.270549,1312.45632 860.268511,1296.52245 861.143881,1286.77453 L857.95505,1286.77453 L851.389809,1325.01619 L849.13887,1350.51064 L845.199725,1360.07106 L846.88793,1376.00508 L840.885424,1446.11481 C836.633628,1446.11481 834.195135,1449.30158 833.569871,1455.67523 L816.312667,1471.60926 L813.123836,1471.60926 L791.552331,1462.04884 L796.241788,1446.11481 L796.05421,1411.05995 L797.367258,1395.12592 L800.743668,1391.93911 L797.929993,1388.75231 L798.30515,1385.5655 C801.181365,1353.07242 807.433912,1318.01791 817.06298,1280.40091 L820.251811,1280.40091 L817.250558,1277.21411 L817.625715,1274.0273 L821.940016,1261.28008 L819.689076,1248.53286 L820.064233,1245.34605 L823.253064,1245.34605 L822.690329,1251.71966 L825.87916,1251.71966 L826.817052,1242.15925 L823.815799,1238.97244 L835.445654,1216.6648 L836.195967,1207.10438 L832.631979,1210.29119 L829.443148,1210.29119 L826.629473,1207.10438 L827.379787,1197.54397 L830.568618,1197.54397 L833.569871,1200.73077 L836.758702,1200.73077 L843.699099,1194.35716 Z M923.854478,1313.58883 L926.302493,1323.14241 L929.503743,1323.14241 C930.382522,1311.77796 943.564009,1283.11751 969.0486,1237.1602 L973.568012,1221.23757 C957.624451,1240.96924 941.053438,1271.75269 923.854478,1313.58883 Z M980.416529,1246.91438 L977.055429,1250.10855 L969.959772,1329.96281 L973.134145,1329.96281 L982.283807,1262.88523 L979.296162,1259.69106 L982.470535,1259.69106 L979.669618,1256.49689 L979.856346,1253.30272 L983.404174,1250.10855 L983.590902,1246.91438 L980.416529,1246.91438 Z M959.822335,1412.61004 L957.531388,1438.28685 L960.776896,1438.28685 L965.5497,1422.23884 L963.067842,1412.61004 L959.822335,1412.61004 Z M1189.31406,1167.07555 L1195.67525,1167.07555 L1195.11397,1173.49475 L1187.63021,1186.33316 L1184.8238,1183.12356 L1181.64321,1183.12356 L1189.31406,1167.07555 Z M1071.01824,1170.28515 L1077.39591,1170.28515 L1086.39966,1176.65876 L1086.58724,1173.47196 C1097.96705,1175.59651 1106.03284,1180.9078 1110.78484,1189.40599 C1118.16296,1189.40599 1125.79107,1211.7134 1133.6694,1256.32891 L1177.7503,1189.40599 L1181.12671,1186.21918 L1184.31554,1186.21918 L1184.12796,1189.40599 L1138.92159,1269.07613 L1145.29925,1269.07613 C1178.68836,1203.21515 1198.57146,1170.28515 1204.94915,1170.28515 L1213.95291,1176.65876 L1214.14049,1173.47196 C1223.26934,1173.47196 1234.08625,1184.09454 1246.59153,1205.34001 L1245.65364,1214.90043 L1242.27723,1218.08724 L1245.09091,1221.27404 L1243.96544,1234.02127 L1237.58778,1234.02127 L1242.27723,1253.1421 L1236.08715,1288.19696 L1235.14926,1297.75738 L1238.15051,1300.94419 L1237.77535,1304.13099 L1231.02254,1310.5046 L1236.64988,1316.87821 L1229.89707,1323.25183 L1235.52441,1329.62544 L1232.148,1332.81224 L1228.95917,1332.81224 L1231.96043,1335.99905 L1224.08214,1425.22961 C1217.70444,1425.22961 1214.26554,1428.41638 1213.76533,1434.79002 C1207.38764,1434.79002 1203.69863,1440.10131 1202.69821,1450.72405 L1193.13172,1450.72405 L1175.1242,1437.97683 L1180.00124,1418.856 L1175.31178,1399.73516 L1196.88328,1262.70252 C1186.25379,1273.82515 1174.62406,1297.19482 1161.99372,1332.81224 C1160.86824,1345.18461 1155.86621,1353.68267 1146.98746,1358.30669 L1143.79862,1358.30669 L1143.9862,1355.11988 L1147.55019,1351.93308 L1147.92535,1348.74627 L1144.92409,1345.55946 L1151.86449,1339.18585 L1152.6148,1329.62544 L1146.23714,1329.62544 C1145.36177,1341.24796 1140.35973,1349.74603 1131.23088,1355.11988 L1128.04205,1355.11988 L1113.59852,1339.18585 C1107.97114,1339.18585 1104.59476,1329.62553 1103.46929,1310.5046 C1092.58969,1288.38431 1087.58766,1272.45044 1088.46303,1262.70252 L1085.27419,1262.70252 L1078.70895,1300.94419 L1076.45801,1326.43863 L1072.51887,1335.99905 L1074.20707,1351.93308 L1068.20457,1422.0428 C1063.95277,1422.0428 1061.51428,1425.22958 1060.88901,1431.60322 L1043.63181,1447.53725 L1040.44298,1447.53725 L1018.87147,1437.97683 L1023.56093,1422.0428 L1023.37335,1386.98794 L1024.6864,1371.05391 L1028.06281,1367.8671 L1025.24914,1364.6803 L1025.62429,1361.49349 C1028.50051,1329.00041 1034.75306,1293.9459 1044.38212,1256.32891 L1047.57096,1256.32891 L1044.5697,1253.1421 L1044.94486,1249.95529 L1049.25916,1237.20807 L1047.00822,1224.46085 L1047.38338,1221.27404 L1050.57221,1221.27404 L1050.00947,1227.64765 L1053.1983,1227.64765 L1054.1362,1218.08724 L1051.13494,1214.90043 L1062.7648,1192.59279 L1063.51511,1183.03238 L1059.95112,1186.21918 L1056.76229,1186.21918 L1053.94862,1183.03238 L1054.69893,1173.47196 L1057.88776,1173.47196 L1060.88901,1176.65876 L1064.07785,1176.65876 L1071.01824,1170.28515 Z M1151.17362,1313.58883 L1153.62164,1323.14241 L1156.82289,1323.14241 C1157.70167,1311.77796 1170.88315,1283.11751 1196.36774,1237.1602 L1200.88716,1221.23757 C1184.94359,1240.96924 1168.37258,1271.75269 1151.17362,1313.58883 Z M1207.73567,1246.91438 L1204.37457,1250.10855 L1197.27892,1329.96281 L1200.45329,1329.96281 L1209.60295,1262.88523 L1206.61531,1259.69106 L1209.78968,1259.69106 L1206.98876,1256.49689 L1207.17549,1253.30272 L1210.72332,1250.10855 L1210.91005,1246.91438 L1207.73567,1246.91438 Z M1187.14148,1412.61004 L1184.85053,1438.28685 L1188.09604,1438.28685 L1192.86884,1422.23884 L1190.38699,1412.61004 L1187.14148,1412.61004 Z M1424.43973,1127.35674 L1439.83285,1138.04198 C1435.32753,1156.91308 1427.19303,1165.97357 1415.42912,1165.22372 L1332.081,1168.97293 L1331.70556,1175.34658 L1347.47413,1176.47134 L1366.80939,1174.59674 L1369.81292,1178.15849 L1373.00418,1178.34595 L1395.5307,1176.47134 L1401.91321,1177.03372 L1401.72549,1180.22055 L1327.5757,1187.90642 L1321.75635,1229.1477 L1324.94761,1229.33516 L1411.6747,1222.39912 L1414.49052,1225.77341 L1414.3028,1228.96024 L1407.92028,1228.39785 L1407.92028,1231.58468 L1429.88364,1236.45865 L1429.69592,1239.64547 C1425.06544,1251.51802 1394.5298,1261.14089 1338.08808,1268.51436 L1305.98779,1269.63913 L1308.99132,1272.82595 L1293.5982,1313.31738 L1290.40695,1313.31738 L1292.28416,1284.63595 L1289.0929,1284.44849 L1282.89811,1328.68913 C1346.59841,1320.19089 1391.58843,1316.81663 1417.8695,1318.56627 L1433.45034,1322.87786 L1433.26262,1329.25151 L1426.8801,1328.87659 L1429.69592,1332.25088 L1429.13276,1341.81135 C1423.00051,1349.8097 1409.98531,1353.18395 1390.08679,1351.93421 L1389.89907,1355.12104 L1415.42912,1356.80818 L1414.86596,1363.18183 L1266.37866,1384.92723 L1263.1874,1384.73977 C1252.92527,1382.49023 1247.79428,1379.17847 1247.79428,1374.80437 L1247.79428,1374.24199 L1248.35744,1364.68151 L1257.18033,1330.18881 L1254.17679,1326.81453 L1260.55931,1327.00199 L1259.43298,1342.93612 L1262.62424,1343.31104 C1263.87572,1332.68823 1266.37864,1327.56437 1270.13308,1327.93929 L1267.12954,1324.37754 L1269.38219,1292.69675 L1262.99968,1292.13437 L1258.6821,1307.88103 L1262.2488,1304.88167 L1265.44005,1305.06913 L1264.12601,1324.19008 L1260.93475,1323.81516 L1261.49791,1314.44215 L1258.30666,1314.25468 L1257.93121,1320.62834 L1254.73996,1320.44088 L1255.1154,1314.06722 L1265.25233,1260.26611 L1262.06108,1260.07865 L1269.38219,1244.7069 L1266.37866,1241.33262 L1266.56638,1238.14579 L1273.51206,1184.34468 L1276.51559,1187.71896 L1279.70685,1187.90642 L1280.08229,1181.53277 L1278.01736,1165.41118 L1283.08583,1136.91721 L1283.64899,1127.35674 L1286.84025,1127.73166 L1289.84378,1131.10594 L1293.22276,1128.10658 L1296.41402,1128.4815 L1299.41755,1131.66832 L1302.79653,1128.66896 L1312.3703,1129.4188 L1424.43973,1127.35674 Z M1264.56859,1311.1064 L1263.02907,1333.38638 L1266.30055,1333.57361 L1267.84006,1311.48086 L1264.56859,1311.1064 Z M1370.08215,1315.1184 L1373.28086,1315.1184 L1372.90454,1318.24442 L1314.95133,1323.94481 L1311.94078,1320.45102 L1312.12894,1317.50889 L1341.10554,1316.2217 L1340.91738,1319.34772 L1370.08215,1315.1184 Z M1635.13104,1165.87195 L1644.70072,1169.05998 L1644.70072,1175.43604 L1635.13104,1175.43604 L1641.51083,1185.00014 C1636.88233,1195.62696 1619.86974,1200.94029 1590.47253,1200.94029 L1568.14327,1204.12833 L1564.95338,1213.69242 L1568.14327,1213.69242 C1561.76346,1228.82002 1549.00401,1296.83067 1529.86455,1417.72642 L1539.43423,1459.17083 L1536.24434,1459.17083 C1531.49075,1459.17083 1527.2376,1448.54416 1523.48476,1427.29051 L1526.67466,1395.4102 L1526.67466,1392.22217 L1523.48476,1392.22217 L1523.48476,1398.59823 C1517.10494,1398.59823 1513.91508,1400.72356 1513.91508,1404.97429 L1513.91508,1408.16233 L1520.29487,1459.17083 L1520.29487,1462.35886 L1513.91508,1462.35886 L1501.15551,1452.79476 L1497.96561,1455.98279 L1494.77572,1455.98279 C1486.26929,1437.60464 1482.01615,1421.66464 1482.01615,1408.16233 L1485.20604,1411.35036 L1488.39593,1411.35036 L1482.01615,1389.03414 L1491.58583,1385.84611 L1491.58583,1369.90595 L1485.20604,1369.90595 L1485.20604,1366.71792 C1491.58586,1366.71792 1494.77572,1364.59259 1494.77572,1360.34186 L1494.77572,1357.15383 L1488.39593,1357.15383 C1488.39593,1340.15091 1491.58579,1331.64958 1497.96561,1331.64958 L1497.96561,1290.20517 C1501.34317,1287.20465 1505.59631,1264.88866 1510.72519,1223.25651 L1488.39593,1226.44454 L1443.73742,1223.25651 L1443.73742,1220.06848 L1459.68689,1216.88045 L1459.68689,1220.06848 L1462.87678,1216.88045 L1510.72519,1216.88045 L1510.72519,1207.31636 L1459.68689,1213.69242 L1456.497,1210.50439 L1453.3071,1210.50439 L1434.16774,1213.69242 L1424.59806,1207.31636 L1427.78795,1191.3762 L1424.59806,1188.18817 C1424.59806,1177.56135 1437.35751,1172.24801 1462.87678,1172.24801 L1635.13104,1165.87195 Z M1615.8348,1175.50075 L1615.8348,1178.71036 L1628.6641,1178.71036 L1628.6641,1175.50075 L1615.8348,1175.50075 Z M1497.96561,1354.03482 L1491.55096,1424.24484 L1497.96561,1424.24484 L1494.75829,1408.28802 L1494.75829,1401.90529 L1501.17294,1392.3312 L1497.96561,1392.3312 L1501.17294,1389.13983 L1501.17294,1385.94847 L1497.96561,1382.7571 L1497.96561,1379.56574 L1504.38026,1366.80028 L1501.17294,1354.03482 L1497.96561,1354.03482 Z" style="mix-blend-mode:color-burn" transform="rotate(-10 900 1322.14)"/>
  </g>
</svg>
